<svg xmlns="http://www.w3.org/2000/svg" version="1.1" id="Layer_1" x="0px" y="0px" viewBox="0 0 512 512" style="enable-background:new 0 0 512 512;" xml:space="preserve">
<g>
	<path fill="white" d="M350.3,148.2V94.3c0-44.7-36.2-80.8-80.8-80.8H80.8C36.2,13.5,0,49.7,0,94.3v323.4c0,44.7,36.2,80.8,80.8,80.8h188.6   c44.7,0,80.8-36.2,80.8-80.8v-53.9c0-14.9-12.1-26.9-26.9-26.9c-14.9,0-26.9,12.1-26.9,26.9v53.9c0,14.9-12.1,26.9-26.9,26.9H80.8   c-14.9,0-26.9-12.1-26.9-26.9V94.3c0-14.9,12.1-26.9,26.9-26.9h188.6c14.9,0,26.9,12.1,26.9,26.9v53.9c0,14.9,12.1,26.9,26.9,26.9   C338.3,175.2,350.3,163.1,350.3,148.2z"/>
  <path fill="white" d="M485.1,229.1H199.8l34.8-34.8c10.5-10.5,10.5-27.6,0-38.1c-10.5-10.5-27.6-10.5-38.1,0l-80.8,80.8   c-7.7,7.7-10,19.3-5.8,29.4s14,16.6,24.9,16.6h350.3c14.9,0,26.9-12.1,26.9-26.9C512,241.1,499.9,229.1,485.1,229.1L485.1,229.1z    M234.6,317.8l-80.8-80.8c-10.5-10.5-27.6-10.5-38.1,0s-10.5,27.6,0,38.1l80.8,80.8c10.5,10.5,27.6,10.5,38.1,0   S245.2,328.3,234.6,317.8z"/>
</g>
</svg>

